<svg xmlns="http://www.w3.org/2000/svg" xmlns:xlink="http://www.w3.org/1999/xlink" width="500" zoomAndPan="magnify" viewBox="0 0 375 374.999991" height="500" preserveAspectRatio="xMidYMid meet" version="1.0"><defs><clipPath id="b103c1f136"><path d="M 48.238281 48 L 326 48 L 326 326.886719 L 48.238281 326.886719 Z M 48.238281 48 " clip-rule="nonzero"/></clipPath></defs><g clip-path="url(#b103c1f136)"><path fill="#ffffff" d="M 231.238281 187.386719 L 324.035156 94.578125 C 326.476562 92.132812 326.476562 88.183594 324.035156 85.738281 L 288.6875 50.378906 C 287.511719 49.203125 285.933594 48.546875 284.269531 48.546875 C 282.609375 48.546875 281.019531 49.203125 279.851562 50.378906 L 187.050781 143.191406 L 94.253906 50.378906 C 91.910156 48.035156 87.761719 48.035156 85.417969 50.378906 L 50.066406 85.738281 C 48.890625 86.914062 48.234375 88.5 48.234375 90.15625 C 48.234375 91.8125 48.890625 93.40625 50.066406 94.578125 L 142.859375 187.386719 L 50.066406 280.207031 C 48.890625 281.382812 48.234375 282.960938 48.234375 284.625 C 48.234375 286.289062 48.890625 287.875 50.066406 289.042969 L 85.417969 324.394531 C 86.636719 325.613281 88.234375 326.226562 89.835938 326.226562 C 91.433594 326.226562 93.035156 325.613281 94.253906 324.394531 L 187.050781 231.585938 L 279.851562 324.394531 C 282.296875 326.839844 286.246094 326.839844 288.6875 324.394531 L 324.035156 289.042969 C 326.476562 286.601562 326.476562 282.648438 324.035156 280.207031 Z M 231.238281 187.386719 " fill-opacity="1" fill-rule="nonzero"/></g></svg>