<svg xmlns="http://www.w3.org/2000/svg" xmlns:xlink="http://www.w3.org/1999/xlink" width="500" zoomAndPan="magnify" viewBox="0 0 375 374.999991" height="500" preserveAspectRatio="xMidYMid meet" version="1.0"><defs><clipPath id="e23a3ed405"><path d="M 222 224 L 346 224 L 346 347.179688 L 222 347.179688 Z M 222 224 " clip-rule="nonzero"/></clipPath></defs><rect x="-37.5" width="450" fill="#ffffff" y="-37.499999" height="449.999989" fill-opacity="1"/><rect x="-37.5" width="450" fill="#ffffff" y="-37.499999" height="449.999989" fill-opacity="1"/><rect x="-37.5" width="450" fill="#ffffff" y="-37.499999" height="449.999989" fill-opacity="1"/><path fill="#000000" d="M 159.632812 282.808594 C 157.136719 282.8125 154.644531 282.734375 152.152344 282.582031 C 149.664062 282.433594 147.179688 282.203125 144.703125 281.898438 C 142.226562 281.59375 139.761719 281.214844 137.308594 280.757812 C 134.855469 280.304688 132.421875 279.773438 130 279.167969 C 127.578125 278.5625 125.179688 277.882812 122.800781 277.132812 C 120.421875 276.378906 118.070312 275.554688 115.742188 274.65625 C 113.414062 273.761719 111.113281 272.792969 108.847656 271.753906 C 106.578125 270.714844 104.34375 269.609375 102.140625 268.433594 C 99.941406 267.257812 97.777344 266.015625 95.65625 264.707031 C 93.53125 263.402344 91.449219 262.027344 89.40625 260.59375 C 87.367188 259.15625 85.375 257.660156 83.425781 256.101562 C 81.476562 254.542969 79.578125 252.925781 77.730469 251.25 C 75.878906 249.574219 74.085938 247.84375 72.339844 246.058594 C 70.597656 244.273438 68.914062 242.4375 67.28125 240.550781 C 65.652344 238.660156 64.082031 236.722656 62.570312 234.738281 C 61.058594 232.753906 59.609375 230.722656 58.222656 228.648438 C 56.835938 226.574219 55.515625 224.460938 54.257812 222.304688 C 53.003906 220.148438 51.8125 217.957031 50.691406 215.730469 C 49.570312 213.5 48.515625 211.242188 47.535156 208.949219 C 46.550781 206.65625 45.636719 204.332031 44.796875 201.984375 C 43.957031 199.636719 43.1875 197.261719 42.492188 194.867188 C 41.800781 192.46875 41.179688 190.054688 40.632812 187.621094 C 40.085938 185.1875 39.613281 182.738281 39.214844 180.273438 C 38.820312 177.8125 38.5 175.339844 38.253906 172.855469 C 38.011719 170.375 37.84375 167.886719 37.75 165.390625 C 37.660156 162.898438 37.644531 160.40625 37.703125 157.910156 C 37.765625 155.417969 37.902344 152.925781 38.117188 150.441406 C 38.332031 147.957031 38.621094 145.480469 38.988281 143.011719 C 39.355469 140.542969 39.796875 138.089844 40.3125 135.648438 C 40.828125 133.207031 41.421875 130.785156 42.085938 128.378906 C 42.75 125.976562 43.492188 123.59375 44.300781 121.234375 C 45.113281 118.875 45.996094 116.542969 46.953125 114.238281 C 47.90625 111.933594 48.933594 109.660156 50.027344 107.417969 C 51.121094 105.175781 52.285156 102.96875 53.515625 100.800781 C 54.746094 98.628906 56.039062 96.5 57.402344 94.40625 C 58.761719 92.316406 60.1875 90.269531 61.671875 88.265625 C 63.160156 86.261719 64.707031 84.304688 66.3125 82.398438 C 67.917969 80.488281 69.582031 78.628906 71.304688 76.824219 C 73.023438 75.019531 74.796875 73.265625 76.628906 71.566406 C 78.457031 69.871094 80.335938 68.230469 82.261719 66.648438 C 84.191406 65.066406 86.167969 63.542969 88.191406 62.082031 C 90.210938 60.621094 92.277344 59.226562 94.386719 57.890625 C 96.496094 56.558594 98.640625 55.289062 100.828125 54.085938 C 103.015625 52.882812 105.234375 51.75 107.492188 50.683594 C 109.746094 49.617188 112.03125 48.621094 114.347656 47.695312 C 116.667969 46.773438 119.007812 45.917969 121.378906 45.136719 C 123.746094 44.355469 126.140625 43.644531 128.550781 43.011719 C 130.964844 42.375 133.394531 41.816406 135.839844 41.332031 C 138.289062 40.84375 140.75 40.433594 143.222656 40.101562 C 145.691406 39.765625 148.171875 39.507812 150.660156 39.324219 C 153.148438 39.140625 155.640625 39.035156 158.136719 39.007812 C 160.628906 38.976562 163.125 39.023438 165.617188 39.148438 C 168.109375 39.273438 170.59375 39.472656 173.074219 39.75 C 175.550781 40.023438 178.019531 40.375 180.480469 40.804688 C 182.9375 41.230469 185.378906 41.734375 187.804688 42.3125 C 190.234375 42.890625 192.640625 43.542969 195.027344 44.269531 C 197.414062 44.992188 199.777344 45.792969 202.117188 46.664062 C 204.453125 47.53125 206.761719 48.472656 209.042969 49.488281 C 211.324219 50.5 213.570312 51.582031 215.785156 52.730469 C 217.996094 53.882812 220.175781 55.097656 222.3125 56.382812 C 224.453125 57.667969 226.550781 59.015625 228.605469 60.429688 C 230.664062 61.839844 232.671875 63.316406 234.640625 64.851562 C 236.605469 66.386719 238.523438 67.984375 240.390625 69.636719 C 242.257812 71.292969 244.074219 73 245.835938 74.765625 C 247.953125 76.882812 249.992188 79.074219 251.949219 81.339844 C 253.90625 83.605469 255.773438 85.9375 257.558594 88.34375 C 259.34375 90.746094 261.039062 93.210938 262.640625 95.738281 C 264.242188 98.269531 265.75 100.851562 267.164062 103.492188 C 268.574219 106.132812 269.886719 108.820312 271.101562 111.554688 C 272.316406 114.292969 273.429688 117.070312 274.4375 119.886719 C 275.449219 122.707031 276.351562 125.558594 277.152344 128.441406 C 277.949219 131.328125 278.640625 134.238281 279.226562 137.171875 C 279.8125 140.109375 280.289062 143.0625 280.65625 146.035156 C 281.023438 149.003906 281.277344 151.984375 281.425781 154.976562 C 281.574219 157.964844 281.609375 160.957031 281.539062 163.949219 C 281.464844 166.941406 281.28125 169.925781 280.988281 172.90625 C 280.695312 175.886719 280.292969 178.851562 279.78125 181.800781 C 279.269531 184.75 278.648438 187.675781 277.921875 190.578125 C 277.195312 193.484375 276.359375 196.355469 275.421875 199.199219 C 274.480469 202.042969 273.4375 204.84375 272.292969 207.609375 C 271.148438 210.375 269.902344 213.097656 268.554688 215.769531 C 267.207031 218.441406 265.765625 221.0625 264.226562 223.632812 C 262.6875 226.199219 261.054688 228.707031 259.332031 231.152344 C 257.605469 233.601562 255.792969 235.980469 253.894531 238.292969 C 251.992188 240.605469 250.011719 242.847656 247.945312 245.015625 C 245.882812 247.183594 243.738281 249.269531 241.519531 251.28125 C 239.300781 253.289062 237.011719 255.214844 234.652344 257.054688 C 232.289062 258.894531 229.867188 260.648438 227.375 262.308594 C 224.886719 263.972656 222.339844 265.539062 219.734375 267.011719 C 217.128906 268.488281 214.472656 269.863281 211.765625 271.140625 C 209.058594 272.421875 206.308594 273.597656 203.511719 274.671875 C 200.71875 275.75 197.890625 276.71875 195.023438 277.585938 C 192.160156 278.453125 189.265625 279.214844 186.34375 279.867188 C 183.421875 280.523438 180.480469 281.066406 177.519531 281.503906 C 174.558594 281.941406 171.585938 282.269531 168.601562 282.488281 C 165.613281 282.703125 162.625 282.8125 159.632812 282.808594 Z M 159.632812 65.859375 C 157.8125 65.855469 156 65.902344 154.183594 66 C 152.371094 66.101562 150.558594 66.253906 148.753906 66.457031 C 146.949219 66.660156 145.148438 66.917969 143.359375 67.222656 C 141.566406 67.53125 139.785156 67.886719 138.015625 68.296875 C 136.246094 68.707031 134.488281 69.164062 132.742188 69.675781 C 131 70.183594 129.269531 70.742188 127.558594 71.351562 C 125.847656 71.960938 124.152344 72.617188 122.480469 73.324219 C 120.804688 74.03125 119.152344 74.78125 117.519531 75.582031 C 115.886719 76.382812 114.28125 77.230469 112.699219 78.121094 C 111.117188 79.015625 109.558594 79.953125 108.03125 80.933594 C 106.5 81.917969 105 82.941406 103.53125 84.007812 C 102.058594 85.078125 100.621094 86.183594 99.214844 87.335938 C 97.808594 88.484375 96.433594 89.675781 95.097656 90.90625 C 93.757812 92.132812 92.457031 93.398438 91.191406 94.703125 C 89.921875 96.007812 88.695312 97.34375 87.507812 98.71875 C 86.316406 100.09375 85.167969 101.5 84.058594 102.941406 C 82.949219 104.378906 81.882812 105.851562 80.859375 107.351562 C 79.835938 108.851562 78.855469 110.378906 77.917969 111.9375 C 76.980469 113.496094 76.089844 115.078125 75.242188 116.6875 C 74.398438 118.292969 73.597656 119.925781 72.84375 121.578125 C 72.09375 123.234375 71.386719 124.90625 70.730469 126.601562 C 70.074219 128.296875 69.46875 130.007812 68.910156 131.738281 C 68.351562 133.464844 67.839844 135.210938 67.382812 136.96875 C 66.925781 138.726562 66.515625 140.496094 66.160156 142.277344 C 65.800781 144.0625 65.496094 145.851562 65.242188 147.652344 C 64.988281 149.449219 64.785156 151.253906 64.632812 153.066406 C 64.484375 154.878906 64.382812 156.691406 64.335938 158.507812 C 64.289062 160.324219 64.292969 162.140625 64.351562 163.957031 C 64.410156 165.773438 64.519531 167.585938 64.679688 169.394531 C 64.839844 171.207031 65.050781 173.011719 65.316406 174.808594 C 65.582031 176.605469 65.898438 178.394531 66.261719 180.175781 C 66.628906 181.953125 67.046875 183.722656 67.515625 185.476562 C 67.984375 187.234375 68.503906 188.976562 69.070312 190.699219 C 69.640625 192.425781 70.253906 194.136719 70.921875 195.828125 C 71.585938 197.515625 72.300781 199.1875 73.0625 200.835938 C 73.824219 202.488281 74.632812 204.113281 75.488281 205.71875 C 76.34375 207.320312 77.242188 208.898438 78.1875 210.449219 C 79.132812 212.003906 80.121094 213.527344 81.15625 215.023438 C 82.1875 216.515625 83.261719 217.980469 84.378906 219.414062 C 85.496094 220.847656 86.652344 222.25 87.851562 223.617188 C 89.046875 224.984375 90.28125 226.316406 91.554688 227.613281 C 92.828125 228.910156 94.136719 230.167969 95.484375 231.390625 C 96.828125 232.609375 98.207031 233.792969 99.621094 234.9375 C 101.035156 236.078125 102.476562 237.179688 103.953125 238.238281 C 105.429688 239.296875 106.9375 240.316406 108.472656 241.289062 C 110.003906 242.261719 111.566406 243.191406 113.152344 244.074219 C 114.742188 244.957031 116.355469 245.796875 117.988281 246.585938 C 119.625 247.378906 121.28125 248.121094 122.960938 248.820312 C 124.640625 249.515625 126.335938 250.164062 128.050781 250.761719 C 129.765625 251.363281 131.5 251.914062 133.246094 252.414062 C 134.992188 252.914062 136.753906 253.363281 138.527344 253.761719 C 140.296875 254.160156 142.082031 254.507812 143.875 254.804688 C 145.667969 255.101562 147.464844 255.347656 149.273438 255.542969 C 151.078125 255.734375 152.890625 255.878906 154.707031 255.96875 C 156.519531 256.058594 158.335938 256.09375 160.152344 256.082031 C 161.972656 256.066406 163.785156 256 165.601562 255.882812 C 167.414062 255.765625 169.222656 255.59375 171.023438 255.375 C 172.828125 255.152344 174.625 254.878906 176.414062 254.554688 C 178.199219 254.230469 179.976562 253.851562 181.746094 253.425781 C 183.511719 253 185.261719 252.523438 187.003906 251.996094 C 188.742188 251.46875 190.464844 250.894531 192.171875 250.265625 C 193.875 249.640625 195.5625 248.96875 197.230469 248.246094 C 198.898438 247.523438 200.542969 246.753906 202.167969 245.9375 C 203.789062 245.117188 205.386719 244.257812 206.960938 243.347656 C 208.535156 242.441406 210.082031 241.488281 211.601562 240.488281 C 213.121094 239.492188 214.609375 238.453125 216.070312 237.371094 C 217.53125 236.289062 218.957031 235.164062 220.351562 234 C 221.75 232.835938 223.109375 231.632812 224.433594 230.390625 C 225.761719 229.148438 227.050781 227.871094 228.304688 226.554688 C 229.558594 225.238281 230.773438 223.886719 231.949219 222.5 C 233.121094 221.117188 234.257812 219.699219 235.351562 218.246094 C 236.445312 216.796875 237.5 215.316406 238.507812 213.804688 C 239.515625 212.292969 240.484375 210.753906 241.402344 209.1875 C 242.324219 207.621094 243.199219 206.03125 244.03125 204.414062 C 244.859375 202.796875 245.644531 201.15625 246.378906 199.496094 C 247.117188 197.835938 247.804688 196.152344 248.441406 194.453125 C 249.082031 192.75 249.671875 191.035156 250.214844 189.300781 C 250.757812 187.5625 251.246094 185.816406 251.6875 184.050781 C 252.128906 182.289062 252.519531 180.515625 252.859375 178.730469 C 253.199219 176.945312 253.484375 175.152344 253.722656 173.351562 C 253.957031 171.546875 254.144531 169.742188 254.277344 167.929688 C 254.410156 166.117188 254.488281 164.300781 254.519531 162.484375 C 254.546875 160.667969 254.523438 158.851562 254.449219 157.035156 C 254.375 155.21875 254.246094 153.410156 254.070312 151.601562 C 253.890625 149.792969 253.660156 147.988281 253.375 146.195312 C 253.09375 144.398438 252.761719 142.613281 252.375 140.839844 C 251.992188 139.0625 251.554688 137.296875 251.070312 135.546875 C 250.585938 133.796875 250.050781 132.058594 249.464844 130.339844 C 248.878906 128.621094 248.246094 126.917969 247.5625 125.234375 C 246.878906 123.550781 246.148438 121.886719 245.371094 120.242188 C 244.59375 118.601562 243.769531 116.984375 242.898438 115.386719 C 242.027344 113.792969 241.109375 112.226562 240.148438 110.683594 C 239.1875 109.140625 238.183594 107.625 237.136719 106.140625 C 236.089844 104.65625 235 103.203125 233.871094 101.78125 C 232.738281 100.359375 231.566406 98.96875 230.359375 97.613281 C 229.148438 96.257812 227.898438 94.9375 226.613281 93.65625 C 224.417969 91.460938 222.125 89.378906 219.726562 87.410156 C 217.328125 85.4375 214.839844 83.59375 212.257812 81.867188 C 209.679688 80.140625 207.023438 78.546875 204.285156 77.082031 C 201.550781 75.617188 198.75 74.292969 195.882812 73.101562 C 193.019531 71.914062 190.101562 70.867188 187.132812 69.964844 C 184.164062 69.058594 181.15625 68.304688 178.113281 67.695312 C 175.070312 67.089844 172.003906 66.628906 168.917969 66.324219 C 165.828125 66.015625 162.734375 65.859375 159.632812 65.859375 Z M 159.632812 65.859375 " fill-opacity="1" fill-rule="nonzero"/><g clip-path="url(#e23a3ed405)"><path fill="#000000" d="M 332.441406 347.179688 C 330.667969 347.171875 328.964844 346.824219 327.328125 346.140625 C 325.691406 345.457031 324.25 344.484375 323 343.226562 L 226.878906 247.175781 C 226.257812 246.554688 225.703125 245.875 225.214844 245.144531 C 224.722656 244.414062 224.3125 243.640625 223.976562 242.828125 C 223.636719 242.015625 223.382812 241.175781 223.210938 240.3125 C 223.039062 239.449219 222.953125 238.578125 222.953125 237.699219 C 222.953125 236.816406 223.039062 235.945312 223.210938 235.082031 C 223.382812 234.21875 223.636719 233.382812 223.976562 232.570312 C 224.3125 231.753906 224.722656 230.984375 225.214844 230.25 C 225.703125 229.519531 226.257812 228.84375 226.878906 228.21875 C 227.503906 227.597656 228.179688 227.042969 228.910156 226.554688 C 229.644531 226.0625 230.414062 225.652344 231.230469 225.316406 C 232.042969 224.976562 232.878906 224.722656 233.742188 224.550781 C 234.605469 224.378906 235.476562 224.292969 236.359375 224.292969 C 237.238281 224.292969 238.109375 224.378906 238.972656 224.550781 C 239.835938 224.722656 240.675781 224.976562 241.488281 225.316406 C 242.300781 225.652344 243.074219 226.0625 243.804688 226.554688 C 244.535156 227.042969 245.214844 227.597656 245.835938 228.21875 L 341.886719 324.339844 C 342.816406 325.273438 343.59375 326.324219 344.214844 327.492188 C 344.835938 328.65625 345.273438 329.890625 345.527344 331.183594 C 345.785156 332.480469 345.847656 333.785156 345.71875 335.097656 C 345.589844 336.414062 345.269531 337.679688 344.765625 338.902344 C 344.261719 340.121094 343.589844 341.242188 342.753906 342.265625 C 341.917969 343.289062 340.953125 344.167969 339.855469 344.902344 C 338.757812 345.640625 337.582031 346.203125 336.316406 346.589844 C 335.054688 346.976562 333.761719 347.171875 332.441406 347.179688 Z M 332.441406 347.179688 " fill-opacity="1" fill-rule="nonzero"/></g></svg>